<svg id="Ebene_1" data-name="Ebene 1" xmlns="http://www.w3.org/2000/svg" xmlns:xlink="http://www.w3.org/1999/xlink" viewBox="0 0 1644.3 132.3"><defs><style>.cls-1,.cls-3,.cls-4,.cls-5,.cls-6{fill:none;}.cls-2{clip-path:url(#clip-path);}.cls-3{stroke:#233c7a;}.cls-3,.cls-4,.cls-5,.cls-6{stroke-width:2px;}.cls-4{stroke:#2b9c38;}.cls-5{stroke:#f29400;}.cls-6{stroke:#dc0c22;}</style><clipPath id="clip-path" transform="translate(0.05 -13.87)"><rect class="cls-1" y="14.21" width="1644.09" height="131.57"/></clipPath></defs><g class="cls-2"><path class="cls-3" d="M.05,37S350.32,2,820.89,90.23s823-47.75,823-47.75" transform="translate(0.05 -13.87)"/><path class="cls-4" d="M69.88,45.35s305.94-5.87,403.83,10.26c0,0,401.05,33,441,31.75,0,0,477.56,32.37,657.52-54.88" transform="translate(0.05 -13.87)"/><path class="cls-5" d="M56.9,76.11s187.68-5.74,276.8,7.65,248.9,16,351.32,11c98.1-4.83,348.49-32.87,446-43.3,109.76-11.73,278.48-51,440.84-31" transform="translate(0.05 -13.87)"/><path class="cls-6" d="M46.84,145.18S643.48,33,883.84,43.08s527.91,86.49,723.26,47.47" transform="translate(0.05 -13.87)"/></g></svg>