<svg id="Ebene_1" data-name="Ebene 1" xmlns="http://www.w3.org/2000/svg" viewBox="0 0 1418.42 566.07"><defs><style>.cls-1,.cls-2,.cls-3,.cls-4{fill:none;stroke-miterlimit:10;stroke-width:2px;}.cls-1{stroke:#dc0c22;}.cls-2{stroke:#233c7a;}.cls-3{stroke:#2b9c38;}.cls-4{stroke:#f49300;}</style></defs><path class="cls-1" d="M151.81,384.46c60-60.78,157-47.95,195.86-39.61,29.25,6.28,58.27,15.61,86.33,24.63,36.83,11.85,74.91,24.1,113.78,29.47,94.1,13,197.67-12.62,307.83-76.14,57.94-33.41,112.69-73.88,165.64-113,32.43-24,66-48.75,99.92-71.69C1232.2,63.11,1326.63,25,1418.34,18" transform="translate(0 -16.96)"/><path class="cls-2" d="M.5,343C65,380.69,149.68,393.51,252.2,381.14c43.89-5.3,88-14.41,130.57-23.22,40.78-8.43,83-17.15,125-22.53,103-13.17,188.19-1.49,253.37,34.73,37.28,20.7,69.31,50,100.28,78.43C882.63,468,904.56,488.07,928,505.27c81.21,59.52,185.07,86.38,285,73.68" transform="translate(0 -16.96)"/><path class="cls-3" d="M25.85,388.21c66.44,34.1,151.7,42.29,253.4,24.36,43.54-7.68,87-19.18,129.11-30.3,40.26-10.64,81.9-21.64,123.54-29.3C634,334.22,719.73,341.24,786.79,373.85c38.35,18.65,71.93,46.2,104.4,72.85,22.24,18.25,45.23,37.12,69.6,53,84.33,55,189.5,76.17,288.54,58" transform="translate(0 -16.96)"/><path class="cls-4" d="M127.12,441.72c70.51,24.63,156.09,21,254.34-10.77,42.07-13.6,83.57-31,123.71-47.78,38.42-16.08,78.14-32.72,118.33-46,98.52-32.64,184.43-37.49,255.34-14.42,40.58,13.21,77.58,35.83,113.44,57.75,24.53,15,49.9,30.53,76.23,42.92,91.1,42.88,198.19,49.35,293.79,17.77" transform="translate(0 -16.96)"/></svg>